Coordinates
version=1
nRows=6
nColumns=46
inDegrees=yes

Units are S.I. units (second, meters, Newtons, ...)
Angles are in degrees.

endheader
time	pelvis_tilt	pelvis_list	pelvis_rotation	pelvis_tx	pelvis_ty	pelvis_tz	bb_angle	bb_tx	bb_ty	bb_tz	hip_flexion_r	hip_adduction_r	hip_rotation_r	knee_angle_r	knee_angle_r_beta	ankle_angle_r	subtalar_angle_r	mtp_angle_r	crank_angle_r	hip_flexion_l	hip_adduction_l	hip_rotation_l	knee_angle_l	knee_angle_l_beta	ankle_angle_l	subtalar_angle_l	mtp_angle_l	crank_angle_l	lumbar_extension	lumbar_bending	lumbar_rotation	arm_flex_r	arm_add_r	arm_rot_r	elbow_flex_r	pro_sup_r	wrist_flex_r	wrist_dev_r	arm_flex_l	arm_add_l	arm_rot_l	elbow_flex_l	pro_sup_l	wrist_flex_l	wrist_dev_l
      5.00000000	    -31.76824248	     -2.13902158	      5.85966190	      0.36124076	      1.20547275	     -0.25279283	      0.00000000	      0.50000000	      0.00000000	      0.25000000	     60.99840299	     -6.74197889	     -4.87104124	     78.99792771	      1.37877394	    -19.03663591	    -12.88084666	      0.00000000	      0.00000000	     64.14894508	     -1.37873177	      3.60623387	     52.30575818	      0.91290770	     -0.38950868	     -7.26985747	      0.00000000	      0.00000000	    -63.66718300	      3.32369585	     -4.59249036	     62.49044759	    -14.56271938	     22.35881512	     87.14015269	     57.48850214	      0.00000000	      0.00000000	     48.35975708	    -29.02483010	     13.06518198	    105.72432253	     55.20467418	      0.00000000	      0.00000000
      5.00500000	    -31.76241333	     -2.80374676	      5.51881643	      0.36169959	      1.20356084	     -0.25305832	      0.00000000	      0.50000000	      0.00000000	      0.25000000	     62.25904642	     -6.27221646	     -5.22371718	     81.16448137	      1.41658744	    -18.50262224	    -13.13120015	      0.00000000	      0.00000000	     62.83413778	     -2.13857675	      3.81444985	     50.15852535	      0.87543142	     -1.16754684	     -6.78672615	      0.00000000	      0.00000000	    -63.40848494	      3.69604412	     -3.77336537	     62.58640114	    -14.43885845	     22.55909087	     87.06550098	     57.49046606	      0.00000000	      0.00000000	     47.67140439	    -28.84940686	     12.78374426	    105.76772813	     55.17932463	      0.00000000	      0.00000000
      5.01000000	    -31.73863268	     -3.33928602	      5.35258721	      0.36191262	      1.20147201	     -0.25348706	      0.00000000	      0.50000000	      0.00000000	      0.25000000	     63.58307486	     -6.05656174	     -5.53382303	     83.39425453	      1.45550432	    -18.09858556	    -13.27406085	      0.00000000	      0.00000000	     61.49378970	     -2.62714665	      4.06783268	     48.00527543	      0.83785011	     -2.11039042	     -6.51114717	      0.00000000	      0.00000000	    -63.07895500	      4.13897258	     -3.17189737	     62.69600106	    -14.38298167	     23.00837099	     86.83351018	     57.50232492	      0.00000000	      0.00000000	     46.67004683	    -28.02951198	     11.86393801	    105.83562039	     55.08627439	      0.00000000	      0.00000000
      5.01500000	    -31.67038945	     -3.94309283	      5.14973184	      0.36216751	      1.19939644	     -0.25376594	      0.00000000	      0.50000000	      0.00000000	      0.25000000	     64.89065342	     -5.78158599	     -5.92016541	     85.56179854	      1.49333510	    -17.71876695	    -13.44897589	      0.00000000	      0.00000000	     60.12970784	     -3.20046410	      4.30389949	     45.90882774	      0.80126020	     -3.07810508	     -6.45773155	      0.00000000	      0.00000000	    -62.82560482	      4.61573087	     -2.46787610	     62.85046789	    -14.32796160	     23.47638150	     86.57361380	     57.51432067	      0.00000000	      0.00000000	     45.75721679	    -27.40802007	     10.88933824	    105.81160068	     54.97382103	      0.00000000	      0.00000000
      5.02000000	    -31.58610925	     -4.58157629	      4.98395132	      0.36234301	      1.19727247	     -0.25423749	      0.00000000	      0.50000000	      0.00000000	      0.25000000	     66.18853907	     -5.46469433	     -6.25501768	     87.64090798	      1.52962240	    -17.34109543	    -13.57022340	      0.00000000	      0.00000000	     58.78096255	     -3.72682570	      4.67772637	     43.90718174	      0.76632489	     -4.07111278	     -6.65008340	      0.00000000	      0.00000000	    -62.53666898	      5.28235294	     -2.13468902	     63.61947402	    -13.99274694	     24.83940252	     85.51957245	     57.55028584	      0.00000000	      0.00000000	     44.16698011	    -26.62748532	      8.58755756	    106.25828062	     54.81680734	      0.00000000	      0.00000000
      5.02500000	    -31.39986576	     -5.12422844	      4.84064941	      0.36272737	      1.19542975	     -0.25448594	      0.00000000	      0.50000000	      0.00000000	      0.25000000	     67.40292713	     -5.19236708	     -6.53000329	     89.65504017	      1.56477564	    -17.05039416	    -13.79156791	      0.00000000	      0.00000000	     57.30512466	     -4.25787425	      4.85924619	     41.93238491	      0.73185818	     -5.03269800	     -6.47683500	      0.00000000	      0.00000000	    -62.36528335	      5.74304529	     -1.39686017	     63.62432097	    -13.94179521	     24.99204415	     85.34909434	     57.53352807	      0.00000000	      0.00000000	     43.58246047	    -26.39308369	      8.25946943	    106.08402771	     54.75195211	      0.00000000	      0.00000000
